<svg width="49" height="49" viewBox="0 0 49 49" fill="none" xmlns="http://www.w3.org/2000/svg">
<path d="M24.1749 0C27.5214 0 30.6658 0.634665 33.6084 1.90399C36.5509 3.17332 39.1184 4.90423 41.3109 7.0967C43.5034 9.28918 45.2343 11.8471 46.5036 14.7704C47.7729 17.6937 48.4076 20.8285 48.4076 24.1749C48.4076 27.5214 47.7729 30.6658 46.5036 33.6084C45.2343 36.5509 43.5034 39.1184 41.3109 41.3109C39.1184 43.5034 36.5509 45.2343 33.6084 46.5036C30.6658 47.7729 27.5214 48.4076 24.1749 48.4076C20.8285 48.4076 17.6937 47.7729 14.7704 46.5036C11.8471 45.2343 9.28918 43.5034 7.0967 41.3109C4.90423 39.1184 3.17332 36.5509 1.90399 33.6084C0.634665 30.6658 0 27.5214 0 24.1749C0 20.8285 0.634665 17.6937 1.90399 14.7704C3.17332 11.8471 4.90423 9.28918 7.0967 7.0967C9.28918 4.90423 11.8471 3.17332 14.7704 1.90399C17.6937 0.634665 20.8285 0 24.1749 0ZM33.291 10.5585H28.156C27.156 10.5585 26.2328 10.7316 25.3866 11.0778C24.5404 11.424 23.7999 11.8855 23.1653 12.4625C22.5306 13.0395 22.0402 13.6934 21.694 14.4242C21.3478 15.155 21.1747 15.8858 21.1747 16.6167V19.6746H16.6167V25.6751H21.1747V37.7914H27.2329V25.6751H31.7332V19.6746H27.2329V18.1168C27.2329 17.6552 27.4156 17.2898 27.781 17.0205C28.1464 16.7513 28.4637 16.6167 28.733 16.6167H33.291V10.5585Z" fill="black"/>
</svg>
