<svg width="49" height="49" viewBox="0 0 49 49" fill="none" xmlns="http://www.w3.org/2000/svg">
<path d="M32.3874 24.2327C32.3874 23.5773 32.291 22.864 32.0982 22.0928H34.5273V33.7754C34.5273 34.0839 34.4213 34.3345 34.2092 34.5273C33.9971 34.7201 33.7369 34.8165 33.4284 34.8165H14.4008C14.0924 34.8165 13.8418 34.7201 13.649 34.5273C13.4562 34.3345 13.3598 34.0839 13.3598 33.7754V22.0928H15.731C15.5382 22.864 15.4418 23.5773 15.4418 24.2327C15.4418 25.3894 15.6635 26.4883 16.1069 27.5293C16.5503 28.5703 17.1576 29.4668 17.9287 30.2186C18.6999 30.9705 19.6059 31.5681 20.647 32.0115C21.688 32.4549 22.7868 32.6766 23.9435 32.6766C25.1002 32.6766 26.1991 32.4549 27.2401 32.0115C28.2811 31.5681 29.1776 30.9705 29.9294 30.2186C30.6813 29.4668 31.2789 28.5703 31.7223 27.5293C32.1657 26.4883 32.3874 25.3894 32.3874 24.2327ZM23.9435 29.4957C23.211 29.4957 22.517 29.3607 21.8615 29.0908C21.206 28.8209 20.6373 28.445 20.1554 27.9631C19.6734 27.4811 19.2975 26.922 19.0276 26.2858C18.7577 25.6497 18.6228 24.9653 18.6228 24.2327C18.6228 23.5001 18.7577 22.8061 19.0276 22.1507C19.2975 21.4952 19.6734 20.9265 20.1554 20.4445C20.6373 19.9626 21.206 19.5867 21.8615 19.3168C22.517 19.0469 23.211 18.9119 23.9435 18.9119C24.6761 18.9119 25.3605 19.0469 25.9967 19.3168C26.6329 19.5867 27.1919 19.9626 27.6739 20.4445C28.1558 20.9265 28.5318 21.4952 28.8017 22.1507C29.0715 22.8061 29.2065 23.5001 29.2065 24.2327C29.2065 24.9653 29.0715 25.6497 28.8017 26.2858C28.5318 26.922 28.1558 27.4811 27.6739 27.9631C27.1919 28.445 26.6329 28.8209 25.9967 29.0908C25.3605 29.3607 24.6761 29.4957 23.9435 29.4957ZM33.4284 13.649C33.7369 13.649 33.9971 13.7454 34.2092 13.9381C34.4213 14.1309 34.5273 14.3815 34.5273 14.69V17.8709C34.5273 18.1794 34.4213 18.43 34.2092 18.6228C33.9971 18.8155 33.7369 18.9119 33.4284 18.9119H30.2475C29.9391 18.9119 29.6884 18.8155 29.4957 18.6228C29.3029 18.43 29.2065 18.1794 29.2065 17.8709V14.69C29.2065 14.3815 29.3029 14.1309 29.4957 13.9381C29.6884 13.7454 29.9391 13.649 30.2475 13.649H33.4284ZM36.2623 0C37.9202 0 39.4914 0.318091 40.9758 0.954272C42.4603 1.59045 43.7519 2.45797 44.8508 3.55683C45.9496 4.65569 46.8171 5.93769 47.4533 7.40283C48.0895 8.86798 48.4076 10.4295 48.4076 12.0874V36.2623C48.4076 37.9202 48.0895 39.4914 47.4533 40.9758C46.8171 42.4603 45.9496 43.7519 44.8508 44.8508C43.7519 45.9496 42.4603 46.8171 40.9758 47.4533C39.4914 48.0895 37.9202 48.4076 36.2623 48.4076H12.0874C10.4295 48.4076 8.86798 48.0895 7.40283 47.4533C5.93769 46.8171 4.65569 45.9496 3.55683 44.8508C2.45797 43.7519 1.59045 42.4603 0.954272 40.9758C0.318091 39.4914 0 37.9202 0 36.2623V12.0874C0 10.4295 0.318091 8.86798 0.954272 7.40283C1.59045 5.93769 2.45797 4.65569 3.55683 3.55683C4.65569 2.45797 5.93769 1.59045 7.40283 0.954272C8.86798 0.318091 10.4295 0 12.0874 0H36.2623ZM37.7082 13.649C37.7082 12.7622 37.3997 12.0103 36.7828 11.3934C36.1659 10.7765 35.4141 10.4681 34.5273 10.4681H13.3598C12.473 10.4681 11.7212 10.7765 11.1043 11.3934C10.4873 12.0103 10.1789 12.7622 10.1789 13.649V34.8165C10.1789 35.7033 10.4873 36.4551 11.1043 37.072C11.7212 37.6889 12.473 37.9974 13.3598 37.9974H34.5273C35.4141 37.9974 36.1659 37.6889 36.7828 37.072C37.3997 36.4551 37.7082 35.7033 37.7082 34.8165V13.649Z" fill="black"/>
</svg>
