<svg width="49" height="49" viewBox="0 0 49 49" fill="none" xmlns="http://www.w3.org/2000/svg">
<path d="M24.1749 0C27.5293 0 30.6716 0.636181 33.6019 1.90854C36.5322 3.18091 39.0962 4.90631 41.2939 7.08474C43.4917 9.26318 45.2267 11.8175 46.4991 14.7478C47.7714 17.6781 48.4076 20.8205 48.4076 24.1749C48.4076 27.5293 47.7714 30.6716 46.4991 33.6019C45.2267 36.5322 43.4917 39.0962 41.2939 41.2939C39.0962 43.4917 36.5322 45.2267 33.6019 46.4991C30.6716 47.7714 27.5293 48.4076 24.1749 48.4076C20.8205 48.4076 17.6781 47.7714 14.7478 46.4991C11.8175 45.2267 9.26318 43.4917 7.08474 41.2939C4.90631 39.0962 3.18091 36.5322 1.90854 33.6019C0.636181 30.6716 0 27.5293 0 24.1749C0 20.8205 0.636181 17.6781 1.90854 14.7478C3.18091 11.8175 4.90631 9.26318 7.08474 7.08474C9.26318 4.90631 11.8175 3.18091 14.7478 1.90854C17.6781 0.636181 20.8205 0 24.1749 0ZM16.6564 18.1601H10.5837V37.8239H16.6564V18.1601ZM13.5911 16.5985C14.4394 16.5985 15.1623 16.3094 15.7599 15.731C16.3576 15.1527 16.6564 14.4394 16.6564 13.5911C16.6564 12.7429 16.3576 12.0296 15.7599 11.4513C15.1623 10.8729 14.4394 10.5837 13.5911 10.5837C12.7429 10.5837 12.0296 10.8729 11.4513 11.4513C10.8729 12.0296 10.5837 12.7429 10.5837 13.5911C10.5837 14.4394 10.8729 15.1527 11.4513 15.731C12.0296 16.3094 12.7429 16.5985 13.5911 16.5985ZM37.8239 26.4304C37.8239 25.0424 37.4383 23.6833 36.6672 22.3531C35.896 21.0229 34.8936 20.0108 33.6598 19.3168C32.5416 18.6999 31.2403 18.3721 29.7559 18.3336C28.2715 18.295 26.9124 18.5456 25.6786 19.0854V18.1601H19.6638V37.8239H25.6786V25.7943L28.2233 24.5797C28.5318 24.4255 28.9462 24.3484 29.4668 24.3484C29.9873 24.3484 30.4017 24.4448 30.7102 24.6376C30.9415 24.7532 31.1729 25.0038 31.4042 25.3894C31.6355 25.775 31.7512 26.122 31.7512 26.4304V37.8239H37.8239V26.4304Z" fill="black"/>
</svg>
