<svg width="95" height="32" viewBox="0 0 95 32" fill="none" xmlns="http://www.w3.org/2000/svg">
<path d="M17.208 26L9.792 14.948V26H1.8V0.512018H9.792V11.24L17.1 0.512018H26.136L17.352 12.716L26.712 26H17.208Z" fill="#EB5E28"/>
<path d="M36.9678 6.88402V10.016H44.8878V16.028H36.9678V19.628H45.9678V26H28.9758V0.512018H45.9678V6.88402H36.9678Z" fill="#EB5E28"/>
<path d="M66.0437 12.932C67.5797 13.292 68.7677 14.036 69.6077 15.164C70.4717 16.268 70.9037 17.552 70.9037 19.016C70.9037 21.248 70.1597 22.976 68.6717 24.2C67.2077 25.4 65.0957 26 62.3357 26H48.9797V0.512018H61.9757C64.5677 0.512018 66.6077 1.07602 68.0957 2.20402C69.5837 3.33202 70.3277 4.97602 70.3277 7.13602C70.3277 8.62402 69.9317 9.88402 69.1397 10.916C68.3717 11.924 67.3397 12.596 66.0437 12.932ZM56.9717 10.448H60.0677C60.7877 10.448 61.3157 10.304 61.6517 10.016C62.0117 9.72802 62.1917 9.28402 62.1917 8.68402C62.1917 8.06002 62.0117 7.60402 61.6517 7.31602C61.3157 7.00402 60.7877 6.84802 60.0677 6.84802H56.9717V10.448ZM60.6077 19.592C61.3277 19.592 61.8557 19.46 62.1917 19.196C62.5517 18.908 62.7317 18.452 62.7317 17.828C62.7317 16.604 62.0237 15.992 60.6077 15.992H56.9717V19.592H60.6077Z" fill="#EB5E28"/>
<path d="M83.5611 26.252C80.5131 26.252 77.9931 25.544 76.0011 24.128C74.0331 22.688 72.9651 20.588 72.7971 17.828H81.2931C81.4131 19.292 82.0611 20.024 83.2371 20.024C83.6691 20.024 84.0291 19.928 84.3171 19.736C84.6291 19.52 84.7851 19.196 84.7851 18.764C84.7851 18.164 84.4611 17.684 83.8131 17.324C83.1651 16.94 82.1571 16.508 80.7891 16.028C79.1571 15.452 77.8011 14.888 76.7211 14.336C75.6651 13.784 74.7531 12.98 73.9851 11.924C73.2171 10.868 72.8451 9.51202 72.8691 7.85602C72.8691 6.20002 73.2891 4.79602 74.1291 3.64402C74.9931 2.46802 76.1571 1.58002 77.6211 0.980016C79.1091 0.380017 80.7771 0.0800171 82.6251 0.0800171C85.7451 0.0800171 88.2171 0.800017 90.0411 2.24002C91.8891 3.68002 92.8611 5.70802 92.9571 8.32402H84.3531C84.3291 7.60402 84.1491 7.08802 83.8131 6.77602C83.4771 6.46402 83.0691 6.30802 82.5891 6.30802C82.2531 6.30802 81.9771 6.42802 81.7611 6.66802C81.5451 6.88402 81.4371 7.19602 81.4371 7.60402C81.4371 8.18002 81.7491 8.66002 82.3731 9.04402C83.0211 9.40402 84.0411 9.84802 85.4331 10.376C87.0411 10.976 88.3611 11.552 89.3931 12.104C90.4491 12.656 91.3611 13.424 92.1291 14.408C92.8971 15.392 93.2811 16.628 93.2811 18.116C93.2811 19.676 92.8971 21.08 92.1291 22.328C91.3611 23.552 90.2451 24.512 88.7811 25.208C87.3171 25.904 85.5771 26.252 83.5611 26.252Z" fill="#EB5E28"/>
<path d="M0 29.6H94.2891V31.4H0V29.6Z" fill="#EB5E28"/>
</svg>
