<svg width="49" height="40" viewBox="0 0 49 40" fill="none" xmlns="http://www.w3.org/2000/svg">
<path d="M48.4076 4.68461C46.9762 6.76665 45.3171 8.45832 43.4302 9.7596V11.1259C43.4302 14.3791 42.8121 17.6811 41.5759 21.0319C40.3397 24.3827 38.5341 27.4082 36.1593 30.1084C33.7845 32.8085 30.8403 35.0207 27.3269 36.7449C23.8134 38.4691 19.7794 39.3312 15.225 39.3312C12.3622 39.3312 9.662 38.9408 7.12451 38.16C4.58701 37.3793 2.21218 36.2732 0 34.8418C0.390384 34.9068 0.780768 34.9556 1.17115 34.9882C1.56154 35.0207 1.95192 35.0369 2.3423 35.0369C4.68461 35.0369 6.91305 34.6466 9.02763 33.8658C11.1422 33.085 13.0453 32.044 14.737 30.7427C12.5248 30.6777 10.5892 30.0108 8.93003 28.742C7.2709 27.4733 6.11601 25.8304 5.46537 23.8134C5.79069 23.9435 6.09975 24.0086 6.39254 24.0086H7.3197C8.23059 24.0086 9.07642 23.911 9.85719 23.7158C7.57995 23.1953 5.6931 22.0404 4.19663 20.2512C2.70016 18.4619 1.95192 16.3636 1.95192 13.9562V13.8586C2.66762 14.1839 3.38333 14.4605 4.09903 14.6882C4.81473 14.9159 5.5955 15.0298 6.44133 15.0298C5.14005 14.1189 4.08276 12.9477 3.26946 11.5163C2.45617 10.0849 2.04952 8.52338 2.04952 6.83172C2.04952 5.00993 2.50496 3.35079 3.41586 1.85432C5.88829 4.84727 8.88123 7.2709 12.3947 9.12522C15.9081 10.9795 19.7144 12.0043 23.8134 12.1995C23.6182 11.4187 23.5206 10.6705 23.5206 9.95479C23.5206 8.58844 23.7809 7.30343 24.3014 6.09975C24.8219 4.89606 25.5376 3.83877 26.4485 2.92788C27.3594 2.01698 28.4167 1.30128 29.6204 0.780768C30.8241 0.260256 32.1091 0 33.4754 0C34.9068 0 36.2406 0.276522 37.4768 0.829566C38.7131 1.38261 39.7866 2.14711 40.6975 3.12307C41.8687 2.92788 42.9748 2.61882 44.0158 2.19591C45.0568 1.77299 46.0653 1.26875 47.0413 0.683172C46.2605 3.09054 44.7965 4.94486 42.6494 6.24614C44.7315 5.92082 46.6509 5.40031 48.4076 4.68461Z" fill="black"/>
</svg>
