<svg width="49" height="49" viewBox="0 0 49 49" fill="none" xmlns="http://www.w3.org/2000/svg">
<path d="M36.3202 0C37.9781 0 39.5396 0.318091 41.0048 0.954272C42.4699 1.59045 43.7519 2.45797 44.8508 3.55683C45.9496 4.65569 46.8171 5.93769 47.4533 7.40283C48.0895 8.86798 48.4076 10.4295 48.4076 12.0874V36.2623C48.4076 37.9202 48.0895 39.4914 47.4533 40.9758C46.8171 42.4603 45.9496 43.7519 44.8508 44.8508C43.7519 45.9496 42.4699 46.8171 41.0048 47.4533C39.5396 48.0895 37.9781 48.4076 36.3202 48.4076H12.0874C10.4295 48.4076 8.86798 48.0895 7.40283 47.4533C5.93769 46.8171 4.65569 45.9496 3.55683 44.8508C2.45797 43.7519 1.59045 42.4603 0.954272 40.9758C0.318091 39.4914 0 37.9202 0 36.2623V12.0874C0 10.4295 0.318091 8.86798 0.954272 7.40283C1.59045 5.93769 2.45797 4.65569 3.55683 3.55683C4.65569 2.45797 5.93769 1.59045 7.40283 0.954272C8.86798 0.318091 10.4295 0 12.0874 0H36.3202ZM20.5313 21.9772C20.5313 22.864 20.8205 23.558 21.3988 24.0592C21.9386 24.5604 22.7097 24.8111 23.7122 24.8111C24.7532 24.8111 25.5436 24.5604 26.0834 24.0592C26.6618 23.5965 26.9509 22.9025 26.9509 21.9772V16.6564C26.9509 15.9238 26.6618 15.2876 26.0834 14.7478C25.5436 14.2466 24.7918 13.996 23.8279 13.996C22.8254 13.996 22.035 14.2273 21.4567 14.69C20.8398 15.1527 20.5313 15.7889 20.5313 16.5985V21.9772ZM17.4082 24.8111H10.5837V26.6618H12.8971V37.5347H15.0948V26.6618H17.4082V24.8111ZM17.4661 18.7963L20.3578 10.5837H17.8131L16.3094 16.1937H16.1359L14.5165 10.5837H12.0296L14.9792 19.0276V24.5797H17.4661V18.7963ZM23.8857 28.1655H21.9193V35.2791C21.8422 35.3948 21.7458 35.4912 21.6302 35.5683L21.2831 35.7996C21.0518 35.9153 20.8783 35.9731 20.7626 35.9731C20.5699 35.9731 20.4349 35.9346 20.3578 35.8575C20.2807 35.7804 20.2421 35.6069 20.2421 35.337V28.1655H18.2757V36.031C18.2757 36.5708 18.3914 36.9756 18.6228 37.2455C18.8541 37.554 19.1818 37.7082 19.6059 37.7082C19.953 37.7082 20.3385 37.5925 20.7626 37.3612C21.1096 37.207 21.4952 36.9178 21.9193 36.4937V37.5347H23.8857V28.1655ZM30.9994 30.421C30.9994 29.6499 30.8259 29.0523 30.4789 28.6281C30.209 28.2426 29.7463 28.0498 29.0908 28.0498C28.7438 28.0498 28.4354 28.1269 28.1655 28.2811C27.857 28.3968 27.5871 28.6089 27.3558 28.9173V24.8111H25.3316V37.5347H27.3558V36.8407C27.4715 36.9949 27.5968 37.1202 27.7317 37.2166C27.8667 37.313 28.0112 37.3997 28.1655 37.4768C28.4354 37.5925 28.7824 37.6504 29.2065 37.6504C29.7848 37.6504 30.2282 37.4768 30.5367 37.1298C30.8451 36.7443 30.9994 36.243 30.9994 35.6261V30.421ZM30.3054 24.6954C30.768 24.6954 31.1922 24.599 31.5777 24.4062C31.9633 24.2134 32.3874 23.8857 32.8501 23.423V24.5797H35.0478V14.2273H32.8501V22.0928C32.6959 22.2856 32.4645 22.4784 32.1561 22.6712C31.9247 22.7868 31.7319 22.8447 31.5777 22.8447C31.3078 22.8447 31.1536 22.7868 31.115 22.6712C30.9994 22.5555 30.9415 22.382 30.9415 22.1507V14.2273H28.7438V22.9025C28.7438 23.5194 28.8788 23.9628 29.1487 24.2327C29.3414 24.5412 29.727 24.6954 30.3054 24.6954ZM37.8239 30.7102C37.8239 29.7848 37.5732 29.0908 37.072 28.6281C36.6093 28.1655 35.9153 27.9341 34.99 27.9341C34.1032 27.9341 33.3899 28.1847 32.8501 28.686C32.3103 29.2258 32.0404 29.9005 32.0404 30.7102V34.8743C32.0404 35.7996 32.291 36.5129 32.7922 37.0142C33.332 37.554 34.0261 37.8239 34.8743 37.8239C35.8382 37.8239 36.5708 37.5732 37.072 37.072C37.5732 36.6093 37.8239 35.8768 37.8239 34.8743V34.4116H35.7996V34.8165C35.7996 35.3948 35.7418 35.7611 35.6261 35.9153C35.4719 36.0695 35.2406 36.1467 34.9321 36.1467C34.5466 36.1467 34.3152 36.0503 34.2381 35.8575C34.1224 35.7033 34.0646 35.3562 34.0646 34.8165V33.0814H37.8239V30.7102ZM34.9321 29.5535C35.2406 29.5535 35.4526 29.6499 35.5683 29.8427C35.7225 29.9969 35.7996 30.2668 35.7996 30.6524V31.6355H34.0646V30.6524C34.0646 30.3054 34.1224 30.0355 34.2381 29.8427C34.4309 29.6499 34.6622 29.5535 34.9321 29.5535ZM28.1655 29.5535C28.4354 29.5535 28.6281 29.6306 28.7438 29.7848C28.898 29.9391 28.9752 30.1704 28.9752 30.4789V35.337C28.9752 35.6454 28.9173 35.8575 28.8017 35.9731C28.686 36.1274 28.5125 36.2045 28.2811 36.2045C28.1269 36.2045 27.9727 36.1659 27.8185 36.0888C27.6257 36.0117 27.4715 35.896 27.3558 35.7418V29.9005C27.51 29.7463 27.645 29.6499 27.7606 29.6113C27.8377 29.5728 27.9727 29.5535 28.1655 29.5535ZM23.7122 23.0182C23.4038 23.0182 23.1917 22.9411 23.076 22.7868C22.8832 22.6712 22.7868 22.4591 22.7868 22.1507V16.5407C22.7868 16.3479 22.8832 16.1551 23.076 15.9624C23.2302 15.8467 23.4423 15.7889 23.7122 15.7889C23.9821 15.7889 24.2327 15.8467 24.4641 15.9624C24.6183 16.1166 24.6954 16.3094 24.6954 16.5407V22.1507C24.6954 22.4591 24.6183 22.6712 24.4641 22.7868C24.3098 22.9411 24.0592 23.0182 23.7122 23.0182Z" fill="black"/>
</svg>
